<?xml version="1.0" encoding="UTF-8"?> <svg xmlns="http://www.w3.org/2000/svg" xmlns:xlink="http://www.w3.org/1999/xlink" version="1.1" id="Layer_1" x="0px" y="0px" width="421.5px" height="84.8px" viewBox="0 0 421.5 84.8" style="enable-background:new 0 0 421.5 84.8;" xml:space="preserve"> <style type="text/css"> .st0{fill:#1F4C6A;} </style> <g> <path class="st0" d="M421.5,48.8c-1,0.9-2.1,1.1-3.4,1.1c-5.1-0.1-10.1,0-15.2,0c-108.2,0-216.3,0-324.5,0c-0.9,0-1.7,0-2.6-0.1 c-1.3-0.2-1.9-0.9-1.9-2.2c-0.1-1.4,0.6-2.4,1.8-2.6c0.9-0.1,1.7-0.1,2.6-0.1c108.5,0,217.1,0,325.6,0c4.8,0,9.6,0,14.4,0 c1.3,0,2.4,0.2,3.3,1.3C421.5,47,421.5,47.9,421.5,48.8z"></path> <path class="st0" d="M44.6,47c0-11.3,0-22.5,0-33.8c0-0.6,0-1.3,0-1.9c0.2-1.4,0.9-2,2.3-2c1.3,0,2,0.7,2.1,2c0.1,0.4,0,0.9,0,1.3 c0,22.9,0,45.9,0,68.8c0,0.5,0,1,0,1.5c-0.2,1.2-1,1.9-2.2,1.9c-1.3,0-2-0.6-2.2-1.9c-0.1-0.6,0-1.3,0-1.9 C44.6,69.7,44.6,58.3,44.6,47z"></path> <path class="st0" d="M399,8.1c-0.2,0.5-0.3,0.9-0.6,1.5c-4.1-3.5-9.7-2-11.7,2.3c-1.7,3.9-1.8,7.9,0.1,11.7 c1.6,3.3,4.8,4.8,8.3,3.9c1.1-0.3,2.1-0.9,3.2-1.4c0.2,2-0.1,3.9-2.1,4.8c-2.8,1.4-5.3,0.5-7.6-1.6c-0.7,0.9-1.3,1.7-1.9,2.5 c2.3,3.1,7.5,3.9,11.1,2.6c3.3-1.3,4.9-3.9,4.9-8.3c0-5.3,0-10.5,0-15.8c0-0.7,0-1.4,0-2.1C401.2,8.1,400.1,8.1,399,8.1z M398.3,21.8c-1,2-2.6,2.5-4.7,2.3c-2-0.3-2.9-1.7-3.5-3.4c-0.5-1.9-0.5-3.8,0-5.8c0.5-1.9,1.5-3.3,3.5-3.6c2-0.3,3.5,0.4,4.6,2.2 C398.3,16.2,398.3,19,398.3,21.8z"></path> <path class="st0" d="M54,47c0-8.1,0-16.2,0-24.2c0-0.6,0-1.2,0-1.7c0.1-1.6,0.9-2.2,2.4-2.2c1.4,0,2.1,0.7,2.2,2.2 c0,0.4,0,0.9,0,1.3c0,16.7,0,33.3,0,50c0,0.5,0,1,0,1.5c-0.2,1.3-0.9,1.9-2.2,1.9c-1.3,0-2.1-0.6-2.3-1.8C54,73.2,54,72.5,54,71.9 C54,63.6,54,55.3,54,47z"></path> <path class="st0" d="M30,74.4c-1.1,1.2-2.1,1.4-3.2,0.9c-1.1-0.5-1.2-1.5-1.2-2.5c0-17.2,0-34.3,0-51.5c0-1.7,0.6-2.5,1.9-2.6 c1.4-0.2,2.4,0.5,2.5,2c0.1,0.5,0,1,0,1.5c0,16.6,0,33.2,0,49.8C30.2,72.8,30.1,73.6,30,74.4z"></path> <path class="st0" d="M266,1.4c1.5,0,2.7,0,4,0c0,8.6,0,17.1,0,25.8c-1.2,0-2.5,0-4,0c0-3.7,0-7.5,0-11.3c-3,0-5.8,0-8.8,0 c0,3.7,0,7.5,0,11.3c-1.5,0-2.7,0-4.1,0c0-8.7,0-17.2,0-25.9c1.3,0,2.5,0,4,0c0,3.6,0,7.1,0,10.7c3.1,0,5.8,0,8.9,0 C266,8.5,266,5,266,1.4z"></path> <path class="st0" d="M155.1,0c0,3.2,0,6.1,0,9.5c-5-3.7-10.8-1.6-12.3,4.4c-0.7,3-0.7,6,0.5,8.9c2,4.9,6.9,6.4,11.3,3.3 c0.2-0.1,0.4-0.1,0.5-0.2c0.2,0.5,0.4,1,0.5,1.4c1.2,0,2.4,0,3.6,0c0-9.2,0-18.2,0-27.3C157.8,0,156.5,0,155.1,0z M155.1,17.7 c0,0.9,0,1.7,0,2.6c0,1.9-0.8,3.1-2.4,3.7c-1.8,0.6-3.8,0.1-4.8-1.5c-0.5-0.8-0.8-1.8-1-2.8c-0.5-2.1-0.3-4.2,0.6-6.1 c1-2.1,3.1-2.9,5.3-2.1c1.5,0.6,2.3,1.6,2.3,3.2C155.1,15.7,155.1,16.7,155.1,17.7z"></path> <path class="st0" d="M109.2,1.4c-1.4,0-2.6,0-3.9,0c-2.8,8.6-5.6,17.2-8.5,25.9c1.7,0,3,0,4.5,0c0.6-1.9,1.2-3.8,1.8-5.8 c2.9,0,5.5,0,8.2,0c0.6,2,1.2,3.9,1.8,5.7c1.5,0,2.9,0,4.4,0C114.7,18.5,112,10,109.2,1.4z M104.3,17.5c0.9-3.2,1.8-6.2,2.7-9.3 c1.4,3,2.3,6,3.2,9.3C108.2,17.5,106.4,17.5,104.3,17.5z"></path> <path class="st0" d="M313.7,20.3c-0.1-2.2,0-4.3,0-6.5c0-1.8-0.8-3.3-2.3-4.5c-3.1-2.4-8.9-2.2-11.8,0.3c-1.2,1-1.9,2.2-1.9,3.9 c1.5,0,2.7,0,4,0c1.3-2.4,3-3.1,5.4-2.4c1.8,0.6,2.4,1.8,2,4.4c-0.8,0-1.7-0.1-2.5,0c-1.7,0.2-3.5,0.3-5.1,0.8 c-2.9,0.9-4.5,3.2-4.3,6c0.2,2.8,2.4,4.8,5.4,5.3c2.5,0.4,4.7-0.3,6.7-1.9c0.3,0.6,0.6,1.1,0.8,1.5c1.4,0,2.8,0,3.9,0 C314,24.8,313.8,22.6,313.7,20.3z M309.2,22.2c-1.4,1.7-3.1,2.3-5.2,2c-1.5-0.2-2.3-1.1-2.4-2.3c-0.1-1.2,0.5-2.6,1.8-2.9 c1.8-0.5,3.8-0.6,5.9-0.8C309.2,19.6,309.2,20.8,309.2,22.2z"></path> <path class="st0" d="M203.7,13c-0.8-2.3-2.4-3.9-4.7-4.8c-4.7-1.7-9.8,0.5-11.6,5.2c-0.6,1.6-0.8,3.5-0.8,5.3 c0,4.1,2.4,7.3,6.1,8.6c4.2,1.5,8.5,0.3,11.2-3c-0.7-0.7-1.3-1.4-2.1-2.2c-2.3,2.2-4.8,2.9-7.7,1.8c-1.9-0.8-3-2.4-3.1-4.7 c4.4,0,8.8,0,13.3,0C204.5,16.7,204.3,14.8,203.7,13z M198.3,15.9c-2.4,0-4.8,0-7.2,0c0.6-3.2,2.4-4.9,4.9-4.7 c2.4,0.1,3.8,1.8,4,4.6C199.4,15.8,198.9,15.9,198.3,15.9z"></path> <path class="st0" d="M286,19c2.2,0,4.4,0,6.6,0c0-1.5,0.1-2.7,0-3.8c-0.5-3.3-2-5.9-5.3-7.1c-4.8-1.7-9.9,0.6-11.7,5.4 c-0.9,2.5-1.1,5.1-0.3,7.6c1,3.5,3.5,5.6,7,6.3c3.8,0.7,7.3,0,10-3.3c-0.8-0.7-1.4-1.3-2.3-2.1c-2.2,2-4.8,2.8-7.6,1.7 c-1.9-0.8-3-2.4-3.1-4.7C281.7,19,283.9,19,286,19z M281.5,12c1.4-1.1,3.1-1.2,4.7-0.4c1.6,0.8,2.3,2.2,2.3,4.1c-2.9,0-5.7,0-8.7,0 C279.5,14.1,280.4,13,281.5,12z"></path> <path class="st0" d="M226,27.3c-1.5,0-2.7,0-4.1,0c0-0.8-0.1-1.6-0.1-2.4c0-3,0-5.9,0-8.9c0-1.9,0-3.8-2.3-4.7 c-2.2-0.8-4.2,0-5.9,2.2c0,4.4,0,8.9,0,13.6c-1.4,0-2.8,0-4.2,0c0-6.4,0-12.7,0-19.1c1.2,0,2.3,0,3.6,0c0.1,0.6,0.3,1.3,0.5,2.2 c0.5-0.4,0.9-0.8,1.4-1.1c2.3-1.7,4.8-2,7.4-1.1c1.8,0.7,2.9,2.1,3.4,4c0.3,1,0.4,2.1,0.4,3.2c0.1,3.5,0,7.1,0,10.6 C226.1,26.3,226,26.7,226,27.3z"></path> <path class="st0" d="M137.3,27.3c-1.3,0-2.4,0-3.6,0c-0.1-0.7-0.3-1.4-0.4-2.2c-0.6,0.5-1.1,1-1.6,1.4c-3.8,2.9-9.2,1-10.3-3.6 c-0.3-1-0.4-2.1-0.4-3.2c-0.1-3.4,0-6.8,0-10.2c0-0.4,0.1-0.8,0.1-1.3c1.4,0,2.7,0,4.2,0c0,1.2,0,2.3,0,3.4c0,2.5,0,5,0,7.6 c0,0.1,0,0.3,0,0.4c0.1,1.7,0,3.6,2,4.4c1.9,0.8,4.2,0,5.9-2.2c0-4.3,0-8.9,0-13.7c1.5,0,2.7,0,4.2,0 C137.3,14.4,137.3,20.8,137.3,27.3z"></path> <path class="st0" d="M380.7,27.3c-1.5,0-2.7,0-4.1,0c0-0.7-0.1-1.4-0.1-2.1c0-3,0-6.1,0-9.1c0-1.9,0.1-3.9-2.2-4.7 c-2.1-0.7-4-0.1-5.9,2.1c0,4.4,0,9,0,13.7c-1.4,0-2.7,0-4.1,0c0-6.3,0-12.6,0-19.1c1.1,0,2.3,0,3.6,0c0.1,0.6,0.2,1.3,0.4,2.2 c0.5-0.4,0.9-0.8,1.4-1.1c2.3-1.8,4.9-2.1,7.6-1c2.5,1,3.5,3.2,3.6,5.7C380.8,18.3,380.7,22.7,380.7,27.3z"></path> <path class="st0" d="M62.7,47.3c0-5,0-10.1,0-15.1c0-0.6,0-1.2,0-1.7c0.2-1.2,1.1-1.9,2.3-1.9c1.1,0,2,0.6,2.2,1.7 c0.1,0.6,0.1,1.3,0.1,1.9c0,10,0,20,0,30.1c0,0.6,0,1.2,0,1.7c-0.2,1.3-1,1.9-2.2,2c-1.3,0-2.2-0.7-2.3-2.1c-0.1-1.9,0-3.7,0-5.6 C62.7,54.6,62.7,50.9,62.7,47.3z"></path> <path class="st0" d="M35.2,29.7c1-1.3,2.1-1.5,3.3-0.9c1.1,0.5,1.1,1.6,1.1,2.6c0,10.6,0,21.2,0,31.8c0,2-0.9,2.9-2.5,2.8 c-1.2-0.1-1.8-0.7-2-1.9c0-0.4,0-0.7,0-1.1c0-10.5,0-21.1,0-31.6C35.1,30.8,35.2,30.3,35.2,29.7z"></path> <path class="st0" d="M182,27.3c-5.4,0-10.6,0-15.9,0c0-1.2,0-2.2,0-3.5c2,0,3.8,0,5.7,0c0-4.2,0-8.1,0-12.2c-1.9,0-3.7,0-5.7,0 c0-1.2,0-2.2,0-3.4c3.2,0,6.5,0,10.1,0c0,5.1,0,10.3,0,15.7c2.1,0,3.8,0,5.7,0C182,25.1,182,26.1,182,27.3z"></path> <path class="st0" d="M342.9,27.3c0-1.1,0-2.1,0-3.4c1.9,0,3.8,0,5.8,0c0-4.2,0-8.2,0-12.3c-2,0-3.8,0-5.8,0c0-1.2,0-2.2,0-3.4 c3.3,0,6.6,0,10.2,0c0,5.1,0,10.2,0,15.5c1.9,0,3.7,0,5.6,0c0,1.3,0,2.4,0,3.5C353.5,27.3,348.3,27.3,342.9,27.3z"></path> <path class="st0" d="M326.8,27.3c-1.5,0-2.7,0-3.9,0c-0.5-1.5-0.6-15.3-0.2-19.1c1.2,0,2.5,0,3.9,0c0.1,0.8,0.2,1.5,0.3,2.6 c2.8-3,6-3.9,10-2.6c-0.2,1.3-0.4,2.6-0.5,4c-1.2-0.1-2.3-0.3-3.5-0.2c-1.1,0.1-2.4,0.2-3.4,0.6c-1.7,0.8-2.7,2.1-2.6,4.1 c0.1,2.7,0,5.5,0,8.2C326.8,25.6,326.8,26.4,326.8,27.3z"></path> <path class="st0" d="M20.9,47c0,2.3,0,4.6,0,6.9c0,1.8-1.1,2.7-2.8,2.3c-1.2-0.2-1.6-0.9-1.7-2.6c0-3.9,0-7.8,0-11.6 c0-0.8,0-1.6,0-2.4c0.1-1.3,0.9-1.9,2.1-2c1.3,0,2.2,0.7,2.3,2C20.9,42.1,20.9,44.6,20.9,47C20.9,47,20.9,47,20.9,47z"></path> <path class="st0" d="M4.7,49.6c-0.9,0-1.7,0.1-2.6,0C0.7,49.4,0,48.7,0,47.3c0-1.4,0.7-2.3,2.2-2.4c1.8-0.1,3.6-0.1,5.4,0 c1.5,0.1,2.3,1,2.3,2.3c0,1.4-0.8,2.2-2.3,2.3C6.6,49.6,5.6,49.6,4.7,49.6z"></path> <path class="st0" d="M172,4c-0.1-0.2-0.1-0.4-0.2-0.6c-0.2-1.7,0.8-2.9,2.5-2.8c0.7,0,1.4,0.4,1.8,1c0.5,0.9,0.2,2.1-0.6,2.8 c-0.8,0.6-2,0.7-2.9,0.2C172.4,4.5,172.1,4.3,172,4C172,4.1,172,4,172,4z"></path> <path class="st0" d="M353,3.6c-1.7,1.4-2.8,1.7-3.8,0.9c-0.8-0.6-1-1.7-0.5-2.7c0.5-1,1.8-1.5,3-1.1C352.9,1.1,353.3,1.8,353,3.6z"></path> </g> </svg> 