<?xml version="1.0" encoding="UTF-8"?> <svg xmlns="http://www.w3.org/2000/svg" xmlns:xlink="http://www.w3.org/1999/xlink" version="1.1" id="Layer_1" x="0px" y="0px" width="511.9px" height="510.2px" viewBox="0 0 511.9 510.2" style="enable-background:new 0 0 511.9 510.2;" xml:space="preserve"> <g> <path d="M270.8,509.7c-41.9,2.6-84.5-4.7-123.2-22.7C72.2,451.9,16.9,379.2,3.3,297.1c-13.9-84.3,16.4-171.7,79.1-229.6 c19.2-17.7,40.7-32.2,64.3-43.3C175.7,10.7,206,2.8,238,0.6c17.5-1.2,35-0.7,52.3,1.6c25.7,3.4,50.4,10.6,73.9,21.6 c27.6,12.9,52.1,30.1,73.5,51.7c51.9,52.2,79.2,126.1,73.5,199.5c-4.7,60.7-31.7,119-75,161.8C391.8,480.8,332.1,505.9,270.8,509.7 z M255.7,39.8C136.6,39.9,39.9,136.6,39.9,255.4c0,119.1,97,215.8,216.2,215.6c119.1-0.1,215.8-96.8,215.8-215.5 C471.9,136.4,374.9,39.7,255.7,39.8z"></path> <path d="M220.8,294c1.6-1.5,3-2.8,4.4-4.2c37.6-37.5,75.1-75,112.7-112.5c1.8-1.8,3.6-3.5,5.6-5c7.9-5.7,18.7-4.7,25.6,2.1 c6.9,6.9,7.8,17.6,2.1,25.5c-1.3,1.7-2.8,3.3-4.3,4.9c-43.2,43.2-86.4,86.3-129.7,129.4c-1.5,1.5-3.1,3-4.9,4.3 c-7.1,5.1-16.3,5-23.3-0.2c-1.6-1.2-3-2.6-4.5-4c-19.9-19.9-39.8-39.7-59.7-59.6c-3.1-3.1-5.8-6.3-7-10.7c-2.3-8.3,0.7-17,7.9-21.9 c6.8-4.7,16.2-4.6,22.9,0.4c2,1.5,3.8,3.2,5.6,5c14.2,14.1,28.3,28.2,42.4,42.3C217.8,291.2,219.1,292.4,220.8,294z"></path> </g> </svg> 