<?xml version="1.0" encoding="UTF-8"?> <!-- Generator: Adobe Illustrator 25.3.1, SVG Export Plug-In . SVG Version: 6.00 Build 0) --> <svg xmlns:cc="http://creativecommons.org/ns#" xmlns:dc="http://purl.org/dc/elements/1.1/" xmlns:inkscape="http://www.inkscape.org/namespaces/inkscape" xmlns:rdf="http://www.w3.org/1999/02/22-rdf-syntax-ns#" xmlns:sodipodi="http://sodipodi.sourceforge.net/DTD/sodipodi-0.dtd" xmlns:svg="http://www.w3.org/2000/svg" xmlns="http://www.w3.org/2000/svg" xmlns:xlink="http://www.w3.org/1999/xlink" version="1.1" id="svg2985" inkscape:version="0.48.4 r9939" sodipodi:docname="Forbes-logo.svg" x="0px" y="0px" width="100px" height="26.2px" viewBox="0 0 100 26.2" style="enable-background:new 0 0 100 26.2;" xml:space="preserve"> <g> <path d="M32.7,9.5c-1.5-1.4-3.4-2.1-5.8-2.1c-2.6,0-4.7,0.8-6.3,2.4c-1.7,1.7-2.6,4.1-2.6,7s0.8,5.3,2.4,7c0.9,0.9,1.7,1.5,2.9,1.9 c0.4,0.2,0.7,0.2,1.9,0.4c0.1,0,0.8,0,1.5,0c1,0,1.5-0.1,1.9-0.2l0,0c1.3-0.3,2.3-0.8,3.2-1.4c2.2-1.7,3.4-4.2,3.5-7.4 C35.5,13.9,34.5,11.2,32.7,9.5z M28.9,23.4c-0.3,0.6-1,1.2-1.5,1.4c-2,0.6-3.4-1.3-3.9-5.2c-0.2-1.3-0.2-4.7,0-6.2 c0.4-3.2,1.4-4.8,2.9-4.8c0.7,0,1.1,0.2,1.6,0.7c1.3,1.3,1.9,3.8,1.9,7.7C29.9,20.1,29.6,22.1,28.9,23.4z"></path> <path d="M67.7,13.7c-0.8-3.3-2.8-5.6-5.6-6.1c-0.4-0.1-0.8-0.1-1.6-0.1c-1.2,0-2.1,0.2-3,0.7c-0.3,0.1-0.6,0.2-0.6,0.2s0-1.9,0-4.2 c0-3.2,0-4.2,0-4.2c-0.2,0-7.6,1.4-7.7,1.5c-0.1,0.1-0.1,0.2-0.1,0.4c0,0.4,0,0.4,0.9,0.6c0.3,0.1,0.6,0.2,0.7,0.3 C51,3,51.2,3.5,51.4,4.1c0.1,0.5,0.2,0.9,0.2,4.4c0.1,3.6,0.1,7.3-0.1,14.1v2.8l0.5,0.1c0.8,0.2,2.9,0.5,3.7,0.6l0,0 c1,0.1,3.5,0.1,4.3,0c3.4-0.5,5.9-2.5,7.1-5.5c0.3-0.8,0.6-2,0.7-2.9C67.9,16.7,67.8,14.6,67.7,13.7z M62.3,18.9 c-0.3,2.1-0.9,3.7-1.8,4.8c-0.4,0.5-1.1,1-1.6,1.1c-0.3,0.1-1.1,0.1-1.7,0.1l0,0c-0.1,0-0.3-0.1-0.3-0.1c-0.1-0.2-0.3-9.9-0.2-12.8 l0.1-2.3l0.6-0.2c0.8-0.2,1.8-0.2,2.4,0.1c1.3,0.6,2.2,2.1,2.6,4.6C62.5,15.1,62.5,17.9,62.3,18.9z"></path> <path d="M85.3,14.5c-0.4-3.2-1.7-5.5-3.9-6.6c-2-1-5-0.9-7.3,0.2c-2.1,1-3.6,2.7-4.4,5.2c-0.4,1.3-0.6,2.3-0.5,3.9 c0,1,0.1,1.6,0.2,2c0.8,3.7,3.4,6.2,7,6.9l0,0c0.8,0.1,2.6,0.1,3.4,0c1.1-0.2,2.4-0.7,3.3-1.3c1-0.7,2-1.7,2-2 c0-0.2-0.3-0.6-0.5-0.6c-0.1,0-0.3,0.1-0.6,0.3c-1,0.6-1.9,0.9-3.2,0.9c-1.8,0-2.9-0.5-4.1-1.6c-0.5-0.5-0.7-0.8-1-1.3 c-0.6-1.1-0.9-2.4-0.9-3.9V16h5.3h5.3v-0.4C85.3,15.4,85.3,14.9,85.3,14.5z M79.3,14.6c-1.5,0.1-4.7,0.1-4.8,0.1l0,0 c-0.1-0.1,0.1-1.4,0.2-2c0.3-1.6,0.8-2.8,1.5-3.5c0.4-0.4,0.6-0.5,0.9-0.6c0.2-0.1,0.5-0.1,0.5-0.1c0.3,0,0.7,0.2,1,0.4 c0.8,0.7,1.2,2.3,1.3,4.5v1.1L79.3,14.6z"></path> <path d="M90.8,26.2c-1.3-0.1-3.3-0.6-4-0.9l-0.3-0.1v-1.6c0-0.9-0.1-2.1-0.1-2.7v-1l0.2-0.1c0.1-0.1,0.3-0.1,0.5-0.1h0.3l0.3,0.6 c1,2.4,2.1,3.7,3.6,4.1c0.6,0.2,1.6,0.2,2,0c1.2-0.4,1.8-1.3,1.8-2.5c0-1.4-0.8-2.1-3.8-3.3c-1.8-0.7-2.5-1.1-3.3-1.9 s-1.2-1.8-1.3-3.2c-0.1-1.6,0.4-3,1.5-4.2s2.6-1.8,4.6-2c1.8-0.2,4.5,0.2,5.9,0.8L99,8.2v1.5c0,0.8,0.1,1.9,0.1,2.4V13l-0.3,0.1 c-0.6,0.2-0.6,0.2-0.9-0.6C97,10.2,96,9.2,94.5,8.8c-0.9-0.2-1.7,0-2.3,0.6c-0.4,0.5-0.6,0.9-0.7,1.6c0,0.8,0.1,1.2,0.6,1.7 c0.6,0.6,1.5,1.2,3.4,2c2.3,1,3.4,1.8,4,3c0.4,0.8,0.5,1.4,0.5,2.6c0,0.9-0.1,1.1-0.3,1.7c-0.7,2-2.2,3.3-4.5,3.9 c-0.8,0.2-0.9,0.2-2.5,0.2C91.8,26.2,90.9,26.2,90.8,26.2z"></path> <path d="M0.1,25.8C0,25.8,0,25.6,0,25.3c0-0.6,0-0.6,1.1-0.8c0.9-0.2,1.2-0.3,1.6-0.8c0.8-1,0.9-2.9,0.9-10.8 C3.6,5.5,3.5,4,2.7,2.8C2.4,2.3,1.8,2,0.8,1.9L0,1.8V1.2V0.6h0.2c0.1,0,4.7,0,10.2,0h9.9v0.3c0,0.2,0.1,1.8,0.1,3.6l0.1,3.3L20,8 c-0.8,0.2-0.8,0.2-1.1-0.7c-0.8-2.2-1.8-3.5-3.2-4.2c-0.9-0.5-1.3-0.5-3.9-0.5H9.5V3c-0.1,0.6-0.2,5.2-0.2,7.3v2.1H10 c0.4,0,1.1,0,1.6-0.1c0.8,0,1-0.1,1.3-0.2c0.8-0.4,1.3-1.2,1.7-2.5l0.2-0.7h0.6H16v4.3v4.3h-0.6h-0.6l-0.2-0.7 c-0.3-1.3-0.9-2.2-1.7-2.5c-0.3-0.2-1.2-0.2-2.8-0.3H9.3v1.6c0,1.8,0.1,4.2,0.2,5.5c0.2,1.8,0.6,2.8,1.5,3.2 c0.2,0.1,0.7,0.2,1.1,0.3c0.5,0.1,0.9,0.2,0.9,0.2c0.2,0.1,0.2,1,0,1.1C12.9,25.8,0.2,25.8,0.1,25.8L0.1,25.8z"></path> <path d="M35.5,25.8c-0.1,0-0.1-0.2-0.1-0.6v-0.5l0.3-0.1c0.1,0,0.4-0.1,0.7-0.1c0.7-0.1,1.1-0.5,1.3-1.3c0.2-0.6,0.3-2.5,0.3-6.4 c0-4.7-0.1-5.9-0.6-6.5C37.1,10,37,9.9,36.3,9.7c-0.3-0.1-0.6-0.1-0.7-0.1c-0.1,0-0.2-0.1-0.2-0.4c0-0.3,0-0.4,0.2-0.5 c0.2,0,7.3-1.4,7.6-1.4h0.2v1.1c0,0.6-0.1,1.4-0.1,1.9v0.8l0.3-0.5c0.8-1.5,1.8-2.4,3-3c0.7-0.3,1.1-0.4,2-0.4c1,0,2,0.3,2,0.6 c0,0.2-1.7,4.8-1.8,4.9c-0.1,0-0.4-0.1-0.8-0.3c-0.8-0.4-1.5-0.6-2.2-0.5c-0.9,0-1.8,0.3-2.2,0.7c-0.2,0.2-0.2,0.2-0.2,2.8 s0,5.8,0.2,7.1c0.1,1.1,0.4,1.6,1,1.9c0.2,0.1,1.5,0.3,1.9,0.3c0,0,0.1,0.3,0,0.6v0.6h-5.3C38,25.8,35.6,25.8,35.5,25.8L35.5,25.8z "></path> </g> </svg> 