<?xml version="1.0" encoding="UTF-8"?> <svg xmlns="http://www.w3.org/2000/svg" xmlns:xlink="http://www.w3.org/1999/xlink" version="1.1" id="Capa_1" x="0px" y="0px" width="857.6px" height="137.2px" viewBox="0 0 857.6 137.2" style="enable-background:new 0 0 857.6 137.2;" xml:space="preserve"> <style type="text/css"> .st0{fill-rule:evenodd;clip-rule:evenodd;fill:#211E1E;} </style> <g id="layer1"> <path id="path3986" class="st0" d="M112.8,133.4h-41V68.3c0-6.8-4.9-11.2-10.6-11.2s-12.4,4.6-12.4,11.2v65.1H11.9V29.6L0,21.2 C13.6,16.7,36.3,6.9,48.7,0v54.4c4.9-6.1,17-14,32.2-14c19.4,0,27.7,12.8,27.7,28.1v55C108.6,125.1,110,128.4,112.8,133.4 L112.8,133.4z M535.8,133.4h-41V68.3c0-6.8-4.9-11.2-10.6-11.2s-12.4,4.6-12.4,11.2v65.1h-36.8V29.6L423,21.2 c13.6-4.6,36.3-14.4,48.7-21.2v54.4c4.9-6.1,16.9-14,32.2-14c19.3,0,27.7,12.8,27.7,28.1v55C531.6,125.1,533,128.4,535.8,133.4 L535.8,133.4z M202.5,117.9v6.5c-8.2,7-17.2,12.8-36.6,12.8c-30.6,0-49.4-20.5-49.4-45.8c0-30.2,19.2-50.8,47.5-50.8 s38.5,19.1,38.5,43.2h-51c2.2,27.7,17.7,40.4,31.8,40.4C190.1,124.2,197.8,121.9,202.5,117.9L202.5,117.9L202.5,117.9z M162.3,78.4 c8.2,0,9.1-2.3,9.1-9.2c0-5.3-0.9-18.2-9.1-18.2s-9.1,13-9.1,18.2C153.2,76,154.1,78.4,162.3,78.4z M857.6,117.9v6.5 c-8.2,7-17.2,12.8-36.6,12.8c-30.6,0-49.3-20.5-49.3-45.8c0-30.2,19.2-50.8,47.5-50.8s38.5,19.1,38.5,43.2h-51 c2.2,27.8,17.7,40.4,31.8,40.4C845.1,124.2,852.8,121.9,857.6,117.9L857.6,117.9z M817.4,78.3c8.2,0,9.2-2.3,9.2-9.2 c0-5.3-1-18.3-9.2-18.3s-9.2,13-9.2,18.3C808.2,76,809.2,78.3,817.4,78.3z M306.6,117.1l4.1,0.9c-1.9,7.5-7.3,19.2-24.8,19.2 c-14.6,0-18.7-9-21.7-18.4c-2.6,8.8-12.5,18.4-31.5,18.4c-17,0-26.3-7.5-26.3-21.8c0-15.8,15.4-27.4,53.9-38.8V60 c0-8.6-4.6-11.6-9.7-11.6c-4.6,0-11.9,4.9-11.9,12.7c0,3.7,0.7,6.5,1.2,10.2c0,4.7-5.4,11.9-13.7,11.9c-9.1,0-13.6-6.7-13.6-14.4 c0-12.7,11.7-28.1,42.4-28.1s42.1,16.9,42.1,33v42.9c0,2.6,1,5.3,3.9,5.3C303.5,121.8,305.3,120.3,306.6,117.1L306.6,117.1 L306.6,117.1z M260.5,113.9V82.1c-12.9,5.2-17.4,18.2-17.4,28.1c0,8,2.5,11.7,8.5,11.7C256.8,121.9,260.5,118.6,260.5,113.9z M359.3,133.4H317V29.6l-11.3-8.4c12.9-4.6,36.6-14.4,48.4-21.2v123.4C354.1,125,355.8,128.3,359.3,133.4L359.3,133.4z M591.5,133.4h-42.4V29.6l-11.3-8.4c12.9-4.6,36.6-14.4,48.4-21.2v123.4C586.2,125,588,128.3,591.5,133.4L591.5,133.4L591.5,133.4z M422.9,122.6v6.5c-6.2,5.3-16.4,8.1-27.4,8.1c-18.2,0-24.5-13.5-24.5-24.9v-61h-8.8l46.2-40.5v33.4h14.6v7.1h-14.6v66.1 c0,5.3,3.1,7.7,6.8,7.7C417.3,125.1,421.4,124,422.9,122.6L422.9,122.6L422.9,122.6z M626.7,39.2c-10.5,0-18.9-8.7-18.9-19.6 S616.2,0,626.7,0s18.8,8.7,18.8,19.6S637.2,39.2,626.7,39.2z M651.5,133.4h-43.2V68.1l-11.9-8.4c13.6-4.6,36.4-14.4,48.8-21.3v85.1 C645.2,125.1,647.3,128.4,651.5,133.4L651.5,133.4L651.5,133.4z M768.9,133.4h-42.4V68.1c0-6.8-4.9-11.2-10.7-11.2 s-12.4,4.6-12.4,11.2v65.3h-36.8V68.1l-11.8-8.4c13.6-4.6,35.3-14.4,47.7-21.3v17.9c6.1-8.1,17.9-16.2,33.2-16.2 c19.3,0,27.7,12.9,27.7,28.1v55.2C763.3,125,765.2,128.3,768.9,133.4L768.9,133.4L768.9,133.4z"></path> </g> </svg> 