<?xml version="1.0" encoding="UTF-8"?> <svg xmlns="http://www.w3.org/2000/svg" xmlns:xlink="http://www.w3.org/1999/xlink" version="1.1" id="Capa_1" x="0px" y="0px" width="400px" height="400px" viewBox="0 0 400 400" style="enable-background:new 0 0 400 400;" xml:space="preserve"> <g> <path d="M238.2,177.3h-23.7v-23.7c0-3.5-2.9-6.4-6.4-6.4h-32.6c-3.5,0-6.4,2.9-6.4,6.4v23.7h-23.7c-3.5,0-6.4,2.9-6.4,6.4v32.6 c0,3.5,2.9,6.4,6.4,6.4h23.7v23.7c0,3.5,2.9,6.4,6.4,6.4h32.6c3.5,0,6.4-2.9,6.4-6.4v-23.7h23.7c3.5,0,6.4-2.9,6.4-6.4v-32.6 C244.6,180.2,241.7,177.3,238.2,177.3z M231.8,209.9h-23.7c-3.5,0-6.4,2.9-6.4,6.4V240h-19.8v-23.7c0-3.5-2.9-6.4-6.4-6.4h-23.7 v-19.8h23.7c3.5,0,6.4-2.9,6.4-6.4V160h19.8v23.7c0,3.5,2.9,6.4,6.4,6.4h23.7V209.9z"></path> <path d="M104.3,130.4c-10.9,0-19.8,8.9-19.8,19.8c0,10.9,8.9,19.8,19.8,19.8s19.8-8.9,19.8-19.8C124,139.3,115.2,130.4,104.3,130.4 z M104.3,157.2c-3.9,0-7-3.1-7-7s3.1-7,7-7c3.9,0,7,3.1,7,7S108.1,157.2,104.3,157.2z"></path> <path d="M248.3,108.3c-0.6-0.3-15.4-6.8-34.2-8.9c-18.4-2-43.2-0.1-44.2,0c-3.5,0.3-6.1,3.4-5.9,6.9c0.3,3.5,3.3,6.1,6.9,5.9 c0.2,0,24.6-1.9,41.8,0c16.7,1.8,30.3,7.8,30.4,7.8c0.8,0.4,1.7,0.6,2.6,0.6c2.4,0,4.8-1.4,5.8-3.8 C252.9,113.5,251.5,109.8,248.3,108.3L248.3,108.3z"></path> <path d="M393.9,129.1c-2.6-2.4-6.6-2.3-9,0.2c-4.9,5.2-10.7,8.5-16.7,9.7c0-2.1-0.2-4.4-0.6-6.6c-1.6-8.4-6.4-16.1-12.5-20.2 c-7.2-4.8-17.2-3.6-22.8,2.7c-4.5,5.1-6.3,14.1,2.3,24.1c4.1,4.7,9.1,8.3,14.6,10.6c-4.1,2.9-10,5.5-15.1,7.2 c-7.9-16.1-20-31.6-35.1-44c-26.7-21.9-74.3-44.7-150.2-30.6c-4.2-4.8-13.4-12.9-32.9-19.9c-29.6-10.7-51.8-1.8-52.7-1.4 c-1.6,0.7-2.9,1.9-3.5,3.6c-0.6,1.6-0.6,3.4,0.1,5c0.3,0.6,6.7,14.4,14.6,24.7c3.5,4.6,6.7,8.5,9.2,11.4 c-6.7,4.7-17.1,12.9-24.1,22.5c-7.7,10.5-13.1,23.4-15.6,30.1c-12.8,0.4-37.8,3.1-39.7,18.4c-1.7,13.6,9.8,62.1,29.6,67.9 c9.5,2.7,16.1,3.7,20,4c2.9,5.1,9.2,14.9,16.7,21.6c6.6,5.9,13.9,11.5,18.2,14.7c-2.5,10.4-8.9,37.1-10.2,41.8 c-1,3.6-0.4,7.2,1.9,10.1c3.6,4.8,10.7,6.5,16.2,6.5h38.2c10.8,0,14.6-6.9,16.5-12c1.4-3.7,4.5-14.2,6.4-20.8 c6.4,1.1,17.6,2.6,32.1,2.6c13.7,0,26.6-1.9,35-3.4c-1,4.9-2.1,10.5-2.7,13.5c-1.3,6.3-0.4,11.6,2.6,15.3c1.8,2.2,5.2,4.9,11.2,4.9 h37.9c10.4,0,18.5-5.1,20.6-12.9c0.7-2.4,1.8-7.3,3.3-13.5c2.1-9.2,4.8-20.7,6.6-26.5c2.2-7.2,3-14.5,3.4-18.5 c8.9-6.9,36.4-31.8,36.4-75.5c0-8.8-1.8-18.1-5-27.4c7.7-2.8,19.7-8.1,25-15.9c0.1-0.1,0.2-0.3,0.3-0.4 c10.9-0.3,21.4-5.3,29.8-14.1C396.6,135.5,396.5,131.5,393.9,129.1L393.9,129.1z M297.9,262.8c-1.7,1.1-2.8,3-2.9,5.1 c0,0.1-0.4,9.6-3,18.5c-1.9,6.2-4.6,17.9-6.8,27.3c-1.4,5.8-2.5,10.9-3.1,13c-0.6,2.3-4.8,3.6-8.3,3.6h-37.9 c-0.9,0-1.3-0.2-1.3-0.2l0,0c-0.2-0.2-0.6-1.7,0-4.6c1.3-6.2,4.5-22.5,4.6-23.1c0.4-2.1-0.3-4.4-1.9-5.9c-1.6-1.5-3.8-2.1-6-1.6 c-0.2,0.1-20.3,5.1-41.6,5.1s-34.9-3.4-35-3.4c-3.3-0.9-6.8,1.1-7.7,4.4c-1.6,5.7-6.2,21.4-7.7,25.5c-1.4,3.6-2.1,3.8-4.6,3.8H96.6 c-2.5,0-4.6-0.6-5.5-1.2c2.1-7.8,10.7-44.1,11.1-45.7c0.6-2.5-0.4-5.2-2.5-6.7c-0.1-0.1-11.4-8.1-20.5-16.4 c-8.6-7.7-15.7-21.1-15.7-21.3c-1.1-2.2-3.4-3.5-5.9-3.4c-0.1,0-6.7,0.1-20.1-3.7c-3.5-1-9.3-8.5-14.4-23.1 c-4.6-12.9-6.7-25.9-6-30.9c0.4-3.4,15-7.4,31.5-7.3h0.1c2.8,0,5.2-1.8,6.1-4.5c0.1-0.2,5.8-18,15.2-30.7 c9.3-12.6,26.7-23.3,26.8-23.4c1.6-1,2.8-2.7,3-4.6c0.3-1.9-0.4-3.8-1.7-5.2c-0.1-0.1-6.1-6.5-13.4-16c-3.8-4.9-7.3-11-9.7-15.5 c7.5-1.4,20.8-2.3,36.7,3.5c22.2,8.1,28.2,16.9,28.7,17.8c1.2,2.8,4,4,7,3.4c73.4-14.7,118.6,6.6,143.7,27.1 c17,14,27.8,29.9,33.9,44.4c0,0.1,0.1,0.2,0.1,0.3c4.5,10.8,6.4,20.8,6.4,28.7C331.3,239.9,299.3,261.9,297.9,262.8z M344.3,130.6 c-2.1-2.5-3.9-5.7-2.5-7.3c0.7-0.8,2.1-1.4,3.5-1.4c0.9,0,1.9,0.2,2.6,0.8c3.3,2.2,6.1,7,7.1,12.1c0.2,1.2,0.3,2.3,0.4,3.4 C351.2,136.8,347.4,134.2,344.3,130.6L344.3,130.6z"></path> </g> </svg> 