<?xml version="1.0" encoding="UTF-8"?> <svg xmlns="http://www.w3.org/2000/svg" xmlns:xlink="http://www.w3.org/1999/xlink" version="1.1" id="Layer_1" x="0px" y="0px" width="144.6px" height="143.3px" viewBox="0 0 144.6 143.3" style="enable-background:new 0 0 144.6 143.3;" xml:space="preserve"> <g id="_x39_"> <g> <path d="M1.2,103.8V39.4c0-5.5,4.5-9.9,9.9-9.9h107.8c5.5,0,9.9,4.5,9.9,9.9v12.3h6.9c4.3,0,7.7,3.5,7.7,7.7v24.4 c0,4.3-3.5,7.7-7.7,7.7h-6.9v12.3c0,5.5-4.5,9.9-9.9,9.9H11.1C5.6,113.8,1.2,109.3,1.2,103.8z M123.7,39.4c0-2.6-2.1-4.8-4.8-4.8 H11.1c-2.6,0-4.8,2.1-4.8,4.8v64.4c0,2.6,2.1,4.8,4.8,4.8h107.8c2.6,0,4.8-2.1,4.8-4.8V86.4h12c1.4,0,2.6-1.2,2.6-2.6V59.4 c0-1.4-1.2-2.6-2.6-2.6h-12V39.4z"></path> </g> <path d="M14.1,39.4H116c1.6,0,2.9,1.3,2.9,2.9v58.5c0,1.6-1.3,2.9-2.9,2.9H14.1c-1.6,0-2.9-1.3-2.9-2.9V42.4 C11.1,40.7,12.4,39.4,14.1,39.4z"></path> </g> </svg> 