<?xml version="1.0" encoding="UTF-8"?> <svg xmlns="http://www.w3.org/2000/svg" xmlns:xlink="http://www.w3.org/1999/xlink" version="1.1" id="Layer_1" x="0px" y="0px" width="144.6px" height="143.3px" viewBox="0 0 144.6 143.3" style="enable-background:new 0 0 144.6 143.3;" xml:space="preserve"> <g> <path d="M54.6,26.7L33,48.3H8.2c-3.2,0-5.8,2.6-5.8,5.8v35c0,3.2,2.6,5.8,5.8,5.8H33l21.6,21.6c3.6,3.6,9.9,1.1,9.9-4.1V30.8 C64.5,25.6,58.2,23.1,54.6,26.7z M111.3,14.3c-2.7-1.8-6.4-1-8.1,1.7c-1.8,2.7-1,6.4,1.7,8.1c16.1,10.6,25.7,28.3,25.7,47.5 s-9.6,36.9-25.7,47.5c-2.7,1.8-3.5,5.4-1.7,8.1c1.7,2.6,5.3,3.5,8.1,1.7c19.4-12.7,31-34.2,31-57.3S130.7,27.1,111.3,14.3z M118.9,71.6c0-15.4-7.8-29.6-20.8-37.9c-2.7-1.7-6.3-0.9-8,1.8c-1.7,2.7-0.9,6.4,1.8,8.1c9.7,6.2,15.4,16.6,15.4,28 s-5.8,21.9-15.4,28c-2.7,1.7-3.5,5.4-1.8,8.1c1.6,2.5,5.1,3.7,8,1.8C111.2,101.2,118.9,87.1,118.9,71.6z M84.5,53 c-2.8-1.5-6.4-0.5-7.9,2.3c-1.6,2.8-0.5,6.4,2.3,7.9c3.1,1.7,5.1,5,5.1,8.5c0,3.5-1.9,6.7-5.1,8.5c-2.8,1.6-3.8,5.1-2.3,7.9 c1.6,2.8,5.1,3.8,7.9,2.3c6.9-3.8,11.1-10.9,11.1-18.7S91.4,56.7,84.5,53L84.5,53z"></path> </g> </svg> 