<?xml version="1.0" encoding="UTF-8"?> <svg xmlns="http://www.w3.org/2000/svg" xmlns:xlink="http://www.w3.org/1999/xlink" version="1.1" id="Layer_1" x="0px" y="0px" width="144.6px" height="143.3px" viewBox="0 0 144.6 143.3" style="enable-background:new 0 0 144.6 143.3;" xml:space="preserve"> <path d="M4.7,124.5l30.6-30.6l-10.2-9.6c-4.7-4.7-1.4-12.6,5.2-12.6h34.6c4.1,0,7.4,3.3,7.4,7.4v34.6c0,6.6-8,9.9-12.6,5.2 l-9.6-10.2l-30.6,30.6c-1.9,1.9-5.1,1.9-7,0l-7.8-7.8C2.7,129.5,2.7,126.4,4.7,124.5z M140,18.8l-30.6,30.6l10.2,9.6 c4.7,4.7,1.4,12.6-5.2,12.6H79.7c-4.1,0-7.4-3.3-7.4-7.4V29.7c0-6.6,8-9.9,12.6-5.2l9.6,10.2L125.2,4c1.9-1.9,5.1-1.9,7,0l7.8,7.8 C141.9,13.7,141.9,16.9,140,18.8z"></path> </svg> 