<?xml version="1.0" encoding="UTF-8"?> <svg xmlns="http://www.w3.org/2000/svg" xmlns:xlink="http://www.w3.org/1999/xlink" version="1.1" id="Layer_1" x="0px" y="0px" width="200.3px" height="200.3px" viewBox="0 0 200.3 200.3" style="enable-background:new 0 0 200.3 200.3;" xml:space="preserve"> <style type="text/css"> .st0{fill:#CC0000;} </style> <path class="st0" d="M100.2,0.2c-55.2,0-100,44.8-100,100s44.8,100,100,100s100-44.8,100-100S155.4,0.2,100.2,0.2z M119.7,103.1 c7.8,7.8,15.6,15.6,23.4,23.4c4.6,4.6,4.3,11.9,0,16.6c-4.3,4.7-12.2,4.3-16.6,0c-2.9-2.9-5.7-5.7-8.6-8.6 c-5.9-5.9-11.8-11.8-17.8-17.8c-1,1-2,2-2.9,2.9c-7.8,7.8-15.6,15.6-23.4,23.4c-4.6,4.6-11.9,4.3-16.6,0c-4.7-4.3-4.3-12.2,0-16.6 c2.9-2.9,5.7-5.7,8.6-8.6c5.9-5.9,11.8-11.8,17.8-17.8c-1-1-2-2-2.9-2.9c-7.8-7.8-15.6-15.6-23.4-23.4c-4.6-4.6-4.3-11.9,0-16.6 c4.3-4.7,12.2-4.3,16.6,0c2.9,2.9,5.7,5.7,8.6,8.6c5.9,5.9,11.8,11.8,17.8,17.8c1-1,2-2,2.9-2.9c7.8-7.8,15.6-15.6,23.4-23.4 c4.6-4.6,11.9-4.3,16.6,0c4.7,4.3,4.3,12.2,0,16.6c-2.9,2.9-5.7,5.7-8.6,8.6c-5.9,5.9-11.8,11.8-17.8,17.8 C117.7,101.1,118.7,102.1,119.7,103.1z"></path> </svg> 