<?xml version="1.0" encoding="UTF-8"?> <svg xmlns="http://www.w3.org/2000/svg" xmlns:xlink="http://www.w3.org/1999/xlink" version="1.1" id="Capa_1" x="0px" y="0px" width="400px" height="400px" viewBox="0 0 400 400" style="enable-background:new 0 0 400 400;" xml:space="preserve"> <g> <path d="M292.1,323.8h-14.4c0,1.5,0,3,0.1,4.6c0.2,13,0.5,26.4-15.9,43.3c-7.1,7.3-17.3,10.8-28.6,9.8c-12.9-1.1-25.3-8-31.8-17.5 c-5.8-8.5-6.1-13.1-6.6-21.3c-0.6-9.5-1.5-22.4-11.3-46.5c-9.3-22.8-32.2-40.4-56.4-59.1C102.5,218,77,198.4,68.6,174 c-8.5-24.7-11.5-63.2,5.8-97.5C87.3,50.9,108.7,33.2,138,24c38.5-12.1,68.8-2,87.4,8.7c27.6,15.8,46.1,42.2,50.2,60.1 c5.8,25.2,5.8,34.8,5.8,34.9l7.2,0l7.2,0.1c0-1.1-0.1-11.4-6.2-38.2c-4.6-20.3-24.5-50.7-57.1-69.4C211.4,8,177.1-3.5,133.6,10.2 c-32.7,10.3-57.7,31-72.1,59.7c-19.3,38.3-16,81.3-6.5,108.7c9.9,28.5,37.1,49.5,63.4,69.8c22.6,17.5,44,34,51.8,53.1 c8.9,21.9,9.7,33,10.3,42c0.6,8.9,1.1,16.6,9.1,28.4c8.9,13.2,25.2,22.3,42.5,23.8c1.7,0.1,3.4,0.2,5.1,0.2c13.7,0,26-5,35.1-14.4 c20.5-21.2,20.2-39.9,19.9-53.6C292.2,326.6,292.1,325.1,292.1,323.8L292.1,323.8z"></path> <path d="M157.3,142.6l14.2,2.8c0.3-1.6,8.1-37.1,56.2-53.2c5.9,7.8,8.7,14.6,9,15.3l13.4-5.3c-0.2-0.6-5.8-14.4-18.4-27.3 c-17-17.4-38.8-24.8-62.9-21.4c-24.2,3.4-43.5,14.3-55.9,31.6C100.8,102,96,124.8,100.1,146c7.1,36.9,37.6,64.2,59.9,81.5 c27.5,21.3,44.5,42,44.5,49c0,17.7,11.2,36.4,32.1,36.4s38.3-14.7,38.3-32.1h-14.4c0,8.4-9.8,17.7-23.9,17.7s-17.7-15.9-17.7-22 c0-20.6-41.7-54-50.1-60.4c-20.5-15.9-48.4-40.7-54.6-72.8c-3.3-17.4,0.6-36,10.4-49.8c10-14,26-22.9,46.1-25.7 c20.6-2.9,35.7,4.1,46.2,12.9C166,100.6,157.7,140.8,157.3,142.6L157.3,142.6z"></path> <path d="M352.6,211.1c-0.5-28.3-1.5-47.6-10.2-56.9c-8.9-9.6-34.2-14.9-48.3-14.5c-6.5,0.2-14.5,3.2-23,6.7 c1.9-6.3,2.1-9.5-0.4-12.6c-1.7-2.1-4.3-3.1-7.1-2.8c-5.2,0.6-10.2,3.4-16.7,7.3c-5.3,3.2-16.7,7.7-31.2,9.8 c-18.1,2.7-27.4,11.5-30.2,28.7c-3.7,22.4,22.7,39.2,34,46.3l0.8,0.5c4,2.6,7.6,6.9,10.7,10.7c3.8,4.7,6.9,8.4,11.3,9.6 c0.7,0.2,1.5,0.3,2.2,0.3c1.8,0,3.5-0.5,4.9-1.6c3.1-2.3,4-5.6,4.4-11.2c1.8,2.4,3.6,5.1,5.6,8.3c2.6,4.1,5.6,8.7,9.7,14.2 c5.2,7,13.4,11.4,23.8,12.8c2.6,0.4,5.4,0.5,8.1,0.5c15.3,0,31.3-5.2,37.5-10C349.5,248.9,353,237.2,352.6,211.1L352.6,211.1z M254.3,150.6c0.1-0.1,0.2-0.1,0.3-0.2c-0.3,0.9-0.6,1.8-0.9,2.8c-3.6,1.2-6.8,2-9.4,2.1C248.5,153.8,251.8,152.1,254.3,150.6 L254.3,150.6z M241.7,203.7c-4.8-2.5-10-4.7-15-6.9c-15.6-6.7-26.6-12-25.2-18.2c1.4-6.1,11.5-9.5,27.2-9.5c3.9,0,8.2,0.2,12.8,0.6 c2.3,0.2,4.8,0.1,7.4-0.4c-1.4,5-2.8,10.5-4.1,16.6C243.4,192.5,242.4,198.4,241.7,203.7L241.7,203.7z M233.5,215.7 c1.3,0.6,2.5,1.3,3.7,1.9c1,0.6,2,1.1,2.9,1.7c-0.1,1.1-0.1,2.2-0.2,3.2C238,220.2,235.9,217.9,233.5,215.7L233.5,215.7z M280.6,245.1c-3.8-5.1-6.6-9.4-9.1-13.3c-4.7-7.3-8.7-13.5-16.3-19.6c0.7-6.5,1.8-14.3,3.7-23.1c2.1-9.6,4.4-17.9,6.5-24.8 c2.6-1,5.2-2.1,7.9-3.2c3.5-1.5,7-2.9,10.3-4.1c-2.4,9.9-5,25.4-5,46.5c0,19.7,2.4,34.6,4.8,44.5 C282.4,247.1,281.4,246.2,280.6,245.1L280.6,245.1z M329.8,245.7c-3.3,2.5-17,7.4-30,7c-2.3-7.1-6.7-23.8-6.7-49.3s4-41.8,6.3-49.2 c12.5,0.8,28.4,5.4,32.4,9.8l0,0c5.5,6,6,29.9,6.3,47.4C338.6,236.9,334.7,242,329.8,245.7L329.8,245.7z"></path> </g> </svg> 