<?xml version="1.0" encoding="UTF-8"?> <svg xmlns="http://www.w3.org/2000/svg" xmlns:xlink="http://www.w3.org/1999/xlink" version="1.1" id="Capa_1" x="0px" y="0px" width="400px" height="400px" viewBox="0 0 400 400" style="enable-background:new 0 0 400 400;" xml:space="preserve"> <g> <g> <path d="M265.7,395H134.3c-15.5,0-28.1-12.6-28.1-28.1V60.5c0-15.5,12.6-28.1,28.1-28.1h131.3c15.5,0,28.1,12.6,28.1,28.1v306.3 C293.8,382.4,281.2,395,265.7,395z M134.3,46.4c-7.8,0-14.2,6.4-14.2,14.2v306.3c0,7.8,6.4,14.2,14.2,14.2h131.3 c7.8,0,14.2-6.4,14.2-14.2V60.5c0-7.8-6.4-14.2-14.2-14.2H134.3z"></path> <path d="M246.4,46.4h-92.8V21.9c0-9.3,7.6-16.9,16.9-16.9h59c9.3,0,16.9,7.6,16.9,16.9L246.4,46.4L246.4,46.4z M167.6,32.4h64.9 V21.9c0-1.6-1.3-2.9-2.9-2.9h-59c-1.6,0-2.9,1.3-2.9,2.9L167.6,32.4L167.6,32.4z"></path> </g> <path d="M190.2,313.2c-0.5,0-1.1-0.1-1.7-0.2c-3.1-0.8-5.3-3.6-5.3-6.8V232h-29.9c-2.4,0-4.7-1.3-6-3.4c-1.3-2.1-1.4-4.7-0.2-6.8 l56.3-108.8c1.5-2.9,4.7-4.3,7.9-3.6c3.1,0.8,5.3,3.6,5.3,6.8v74.2h29.9c2.4,0,4.7,1.3,6,3.4c1.3,2.1,1.4,4.7,0.2,6.8l-56.3,108.8 C195.2,311.8,192.8,313.2,190.2,313.2L190.2,313.2z M164.9,218.1h25.4c3.9,0,7,3.1,7,7v52.5l37.9-73.1h-25.4c-3.9,0-7-3.1-7-7V145 L164.9,218.1L164.9,218.1z"></path> </g> </svg> 