<?xml version="1.0" encoding="UTF-8"?> <svg xmlns="http://www.w3.org/2000/svg" xmlns:xlink="http://www.w3.org/1999/xlink" version="1.1" id="Capa_1" x="0px" y="0px" width="400px" height="400px" viewBox="0 0 400 400" style="enable-background:new 0 0 400 400;" xml:space="preserve"> <g> <path d="M200,395c-57.9,0-97.7-36-120.9-66.1c-31-40.3-45.4-86-48.5-115.4c-6.8-64.3-5.9-126.6-5.9-127.2c0-3.2,2.3-5.9,5.4-6.6 c1-0.2,102.2-23.8,165.8-73.2c2.5-1.9,6-1.9,8.5,0C267.9,55.9,369,79.4,370,79.6c3.1,0.7,5.3,3.5,5.4,6.6c0,0.6,0.9,62.9-5.9,127.2 c-3.1,29.4-17.5,75.1-48.5,115.4C297.7,359,257.9,395,200,395L200,395z M38.4,91.8c0,16.3,0.3,67.6,5.9,120.2 c6.1,57.1,59.5,169.1,155.7,169.1s149.7-112,155.7-169.1c5.6-52.6,5.9-103.9,5.9-120.2C339.8,86.4,258.1,63.7,200,20.6 C141.9,63.8,60.1,86.4,38.4,91.8L38.4,91.8z"></path> <g> <path d="M193,175.4v11.1c0,1.1-0.3,1.9-1,2.7c-0.7,0.7-1.7,1.1-2.9,1.1H181v24.6h-17.1v-24.6h-42.7c-1.2,0-2.4-0.4-3.4-1.1 c-1-0.8-1.7-1.8-1.9-3l-2.1-9.8l48.5-65H181v64.1L193,175.4L193,175.4z M163.9,175.4v-30.8c0-1.6,0.1-3.3,0.2-5.2 c0.1-1.8,0.3-3.7,0.5-5.7l-30,41.7L163.9,175.4L163.9,175.4z"></path> <path d="M233.7,148.5c2.1-0.4,4.2-0.7,6.2-0.9c2-0.2,3.9-0.3,5.7-0.3c5.4,0,10.2,0.8,14.4,2.5c4.2,1.6,7.7,3.9,10.5,6.7 c2.8,2.9,5,6.2,6.4,10.1c1.4,3.9,2.1,8,2.1,12.4c0,5.5-1,10.6-2.9,15.1s-4.7,8.4-8.1,11.7c-3.5,3.3-7.6,5.8-12.3,7.6 c-4.8,1.8-10,2.7-15.7,2.7c-3.3,0-6.4-0.3-9.4-1c-3-0.7-5.8-1.6-8.4-2.8c-2.6-1.2-5-2.5-7.2-4c-2.2-1.5-4.2-3.1-6-4.8l6.1-8.3 c1.3-1.8,2.9-2.6,5-2.6c1.3,0,2.5,0.4,3.8,1.1c1.2,0.8,2.6,1.6,4.2,2.5c1.6,0.9,3.4,1.8,5.5,2.5c2.1,0.8,4.6,1.1,7.6,1.1 s5.8-0.5,8.1-1.5c2.3-1,4.2-2.4,5.7-4.2c1.5-1.8,2.6-3.9,3.3-6.3c0.7-2.4,1.1-5.1,1.1-7.9c0-5.4-1.5-9.5-4.6-12.4 s-7.5-4.4-13.4-4.4c-4.8,0-9.6,0.9-14.5,2.7l-12.2-3.4l8.7-50.9h51.9v8.3c0,1.4-0.2,2.6-0.6,3.7c-0.4,1.1-1.1,2.1-2,2.9 s-2.1,1.5-3.6,1.9c-1.5,0.5-3.2,0.7-5.3,0.7h-26.7L233.7,148.5L233.7,148.5z"></path> </g> <g> <path d="M146,231.7c17.4,0,26.8,13.2,26.8,27.1c0.2,14-9.1,27.5-26.8,27.5h-20.3v-54.5H146z M145.8,275.7 c10.1,0,15.3-8.1,15.3-16.9c0-8.7-5.4-16.6-15.3-16.6h-8.5v33.5H145.8z"></path> <path d="M190.4,277.2l-4.2,9.1h-12.2v-1.6l25.1-53.5h5.4l25,53.5v1.6h-12.1l-4.3-9.1H190.4L190.4,277.2z M194.3,267.4h15.1 l-7.6-18L194.3,267.4L194.3,267.4z"></path> <path d="M249.7,253.7l5.4-10.9l6.6-11.2h12.4v1.7l-18.7,31.1v21.9h-11.7v-21.9l-18.8-31.1v-1.7h12.6l6.8,11.6l5.1,10.5H249.7 L249.7,253.7z"></path> </g> </g> </svg> 