<?xml version="1.0" encoding="UTF-8"?> <svg xmlns="http://www.w3.org/2000/svg" xmlns:xlink="http://www.w3.org/1999/xlink" version="1.1" id="Layer_1" x="0px" y="0px" width="144.6px" height="143.3px" viewBox="0 0 144.6 143.3" style="enable-background:new 0 0 144.6 143.3;" xml:space="preserve"> <path d="M119.7,65.2c0.9-2.3,1.4-4.9,1.4-7.5c0-11.5-9.4-20.9-20.9-20.9c-4.3,0-8.3,1.3-11.6,3.5c-6-10.5-17.3-17.5-30.2-17.5 c-19.3,0-34.8,15.6-34.8,34.8c0,0.6,0,1.2,0,1.8C11.4,63.8,2.6,75.4,2.6,89.1c0,17.3,14,31.4,31.4,31.4h80.1 c15.4,0,27.9-12.5,27.9-27.9C142,79.1,132.4,67.8,119.7,65.2z"></path> </svg> 