<?xml version="1.0" encoding="UTF-8"?> <svg xmlns="http://www.w3.org/2000/svg" xmlns:xlink="http://www.w3.org/1999/xlink" version="1.1" id="Layer_1" x="0px" y="0px" width="100px" height="100px" viewBox="0 0 100 100" style="enable-background:new 0 0 100 100;" xml:space="preserve"> <g> <g> <path d="M68.9,93.4h-3.1v-8.5c0-6.9-5.6-12.5-12.5-12.5h-6.7c-6.9,0-12.5,5.6-12.5,12.5v8.5h-3.1v-8.5c0-8.6,7-15.6,15.6-15.6h6.7 c8.6,0,15.6,7,15.6,15.6V93.4L68.9,93.4z"></path> <path d="M50,72c-7.2,0-13.1-5.9-13.1-13.1S42.8,45.8,50,45.8s13.1,5.9,13.1,13.1S57.2,72,50,72z M50,48.9c-5.5,0-10,4.5-10,10 s4.5,10,10,10s10-4.5,10-10S55.5,48.9,50,48.9z"></path> </g> <g> <path d="M99.4,81.6h-3.1v-8.5c0-6.9-5.6-12.5-12.5-12.5h-6.7c-6.9,0-12.5,5.6-12.5,12.5v1.6h-3.1v-1.6c0-8.6,7-15.6,15.6-15.6h6.7 c8.6,0,15.6,7,15.6,15.6V81.6L99.4,81.6z"></path> <path d="M80.5,60.3c-7.2,0-13.1-5.9-13.1-13.1s5.9-13.1,13.1-13.1c7.2,0,13.1,5.9,13.1,13.1S87.7,60.3,80.5,60.3z M80.5,37.2 c-5.5,0-10,4.5-10,10s4.5,10,10,10c5.5,0,10-4.5,10-10S86,37.2,80.5,37.2z"></path> </g> <g> <path d="M68.9,54.2h-3.1v-8.5c0-6.9-5.6-12.5-12.5-12.5h-6.7c-6.9,0-12.5,5.6-12.5,12.5v8.5h-3.1v-8.5c0-8.6,7-15.6,15.6-15.6h6.7 c8.6,0,15.6,7,15.6,15.6V54.2z"></path> <path d="M50,32.8c-7.2,0-13.1-5.9-13.1-13.1S42.8,6.6,50,6.6s13.1,5.9,13.1,13.1S57.2,32.8,50,32.8z M50,9.7c-5.5,0-10,4.5-10,10 s4.5,10,10,10s10-4.5,10-10S55.5,9.7,50,9.7z"></path> </g> <g> <path d="M3.7,81.6H0.6v-8.5c0-8.6,7-15.6,15.6-15.6h6.7c8.6,0,15.6,7,15.6,15.6v1.4h-3.1v-1.4c0-6.9-5.6-12.5-12.5-12.5h-6.7 c-6.9,0-12.5,5.6-12.5,12.5L3.7,81.6L3.7,81.6z"></path> <path d="M19.5,60.3c-7.2,0-13.1-5.9-13.1-13.1s5.9-13.1,13.1-13.1S32.6,40,32.6,47.2S26.8,60.3,19.5,60.3z M19.5,37.2 c-5.5,0-10,4.5-10,10s4.5,10,10,10s10-4.5,10-10S25,37.2,19.5,37.2z"></path> </g> </g> </svg> 