<?xml version="1.0" encoding="UTF-8"?> <svg xmlns="http://www.w3.org/2000/svg" xmlns:xlink="http://www.w3.org/1999/xlink" version="1.1" id="Layer_1" x="0px" y="0px" width="144.6px" height="143.3px" viewBox="0 0 144.6 143.3" style="enable-background:new 0 0 144.6 143.3;" xml:space="preserve"> <g> <path d="M142.3,116.7l-20.2-15.6c0-0.3,0.2-0.6,0.2-0.9c0-1.7-0.6-3.4-1.9-4.8C116,90.7,108,83.7,108,60.9 c0-17.3-12.2-31.2-28.5-34.6v-4.6c0-3.9-3.2-7.1-7.1-7.1c-3.9,0-7.1,3.2-7.1,7.1v4.6c-9,1.9-16.7,6.9-21.8,14l-32.3-25 c-1.6-1.2-3.8-0.9-5,0.6l-4.4,5.6c-1.2,1.6-0.9,3.8,0.6,5L133.5,128c1.6,1.2,3.8,0.9,5-0.6l4.4-5.6 C144.1,120.2,143.9,117.9,142.3,116.7z M36,70.6c-1.9,15.2-8.1,20.8-11.7,24.7c-1.3,1.4-1.9,3.2-1.9,4.8c0,3.7,2.9,7.1,7.2,7.1h54 L36,70.6z M72.3,128.7c7.9,0,14.3-6.4,14.3-14.3H58C58,122.3,64.4,128.7,72.3,128.7z"></path> </g> </svg> 