<?xml version="1.0" encoding="UTF-8"?> <!-- Generator: Adobe Illustrator 26.3.1, SVG Export Plug-In . SVG Version: 6.00 Build 0) --> <svg xmlns="http://www.w3.org/2000/svg" xmlns:xlink="http://www.w3.org/1999/xlink" version="1.1" id="Layer_1" x="0px" y="0px" width="100.2px" height="140px" viewBox="0 0 100.2 140" style="enable-background:new 0 0 100.2 140;" xml:space="preserve"> <g> <path d="M59.1,140c-1.7-5.7-3.3-11.4-5.2-17c-2.1-6.4,2.4-11.4,3.5-17.1c0.2-1.1,1.7-0.7,2.7-0.7c5.9,0.1,10.6-2.3,13.9-7.3 c0.9-1.4,1.9-3,3.8-2.8c1.9,0.2,1.6,2.3,2,3.6C83,108,86,117.3,89,126.6c0.4,1.2,1.5,2.5,0.2,3.7c-1.3,1.2-2.5-0.1-3.6-0.6 c-3.9-1.8-7.8-3.7-11.6-5.8c-2.5-1.4-3.7-0.9-5,1.6c-2.5,4.9-5.2,9.6-7.9,14.4C60.4,140,59.7,140,59.1,140z"></path> <path d="M13.9,126.8c-2.3,0.1-2.1-1.5-1.7-2.7c2.9-9.2,5.9-18.3,8.9-27.5c0.8-2.3,2.1-1.7,3.4-0.7c1,0.8,1.7,2,2.6,3 c4.7,5.9,11.9,7.8,18.7,5.1c2-0.8,4.2-2.6,6-0.9c1.8,1.7-0.3,4-0.8,5.9c-2.4,7.9-5.1,15.8-7.7,23.7c-0.4,1.2-0.5,2.9-2,3.1 c-1.6,0.2-1.9-1.6-2.6-2.7c-2.1-3.9-4.3-7.9-6.2-11.9c-1.1-2.2-2.2-2.5-4.3-1.3c-3.8,2.1-7.7,3.9-11.6,5.8 C15.7,126,14.8,126.4,13.9,126.8z"></path> <path d="M98.7,51.4c-0.4-5.8,3-12,0.6-17.3c-1.3-2.8-3.9-4.6-5.8-6.9c-2-2.4-2.7-5.2-3.2-8.3c-1.9-9.8-11.5-7.4-17.5-12.7 c-2.5-2.2-4.9-4.8-8-5.8C60-1,55.1,1.5,50.2,1.5c-5.7,0.1-11.8-3-16.8-0.2c-2.9,1.6-4.5,4.8-7.3,6.5c-4,2.5-9.8,1.7-13.2,5.1 c-3.5,3.5-2.6,9.5-5.2,13.6c-1.7,2.6-4.7,4.2-6.3,6.9C-1.9,38.8,2.2,45.7,1.6,52c-0.3,4-2.5,8-1.2,11.8c1.4,4.2,6.4,6.1,8.7,10 c2.4,4,1.5,9.7,4.8,13c2.2,2.2,5.4,2.6,8.4,3.2c9.3,1.9,11.4,13.7,22.5,8.9c3.4-1.5,6.5-1.8,10-0.2c6.9,3,10.7,1.8,15.5-4.3 c1.9-2.5,4.2-4,7.4-4.4c8.2-1,10.8-3.5,12-11.9c0.9-6.6,7.9-8.3,9.9-14c0.2-0.6,0.4-1.2,0.4-1.8C100.6,58.5,98.9,55,98.7,51.4z M50,90.2c-22.1,0-39.9-17.9-39.9-40C10.2,28,28.3,10,50.5,10.1c22,0.2,39.7,18.2,39.6,40.3C90,72.6,72.2,90.3,50,90.2z"></path> <path d="M50.2,14c-20,0-36.1,16.1-36.2,36.1C14,70.3,30.2,86.6,50.4,86.4c20-0.1,35.9-16.2,35.9-36.3C86.2,30.1,70.2,14,50.2,14z M71.6,39.1C63.3,47.3,55.2,55.5,47,63.7c-1.3,1.3-2.5,2.8-3.8,2.7c-2.6,0.1-3.9-0.7-5.2-2c-4.1-4.1-8.2-8.2-12.3-12.3 c-2.3-2.3-3-4.9-0.6-7.4c2.5-2.6,5.1-1.6,7.4,0.7c2.4,2.5,5.1,4.8,7.3,7.4c1.8,2.1,2.9,1.7,4.7-0.1c6.7-6.9,13.6-13.6,20.3-20.5 c2.4-2.5,5.1-4.3,8.1-1.3C75.8,34,74,36.6,71.6,39.1z"></path> </g> </svg> 