<?xml version="1.0" encoding="UTF-8"?> <!-- Generator: Adobe Illustrator 26.3.1, SVG Export Plug-In . SVG Version: 6.00 Build 0) --> <svg xmlns="http://www.w3.org/2000/svg" xmlns:xlink="http://www.w3.org/1999/xlink" version="1.1" id="Layer_1" x="0px" y="0px" width="512px" height="359.9px" viewBox="0 0 512 359.9" style="enable-background:new 0 0 512 359.9;" xml:space="preserve"> <g> <path d="M512,301c-2.6,3.8-6.2,5-10.7,4.9c-17-0.2-34-0.2-51,0c-3.7,0-5.1-1-6-4.7c-6.7-27.1-27.1-44.5-54.8-46.7 c-26.8-2.2-54.2,17.4-60.8,43.5c-0.6,2.4-1.3,4.8-2,7.8c-1.6,0-3.2,0-4.9,0c-36.3,0-72.6-0.1-109,0.1c-3.8,0-5.3-0.8-6.2-4.9 c-2.3-10.6-7.4-19.9-15-27.7c-1.1-1.1-2.1-2.4-3.9-4.3c38,0,75,0,112.6,0c0-2.7,0-4.8,0-6.9c0-65.5,0-131,0-196.5 c0-1.7-0.1-3.3,0-5c0.6-9.4,5.8-15.2,15.1-15.2c25-0.1,50-0.4,74.9,0.7c16.2,0.7,29.9,8.6,39.3,21.9c16.4,23.1,32,46.7,47.7,70.2 c6.9,10.3,9.5,21.9,9.4,34.2c0,30.2,0,60.3,0,90.5c0,1.8,0,3.6,0,6.2c5,0,9.8,0.2,14.5-0.1c4.6-0.3,8.2,1,10.6,5.1 C512,283,512,292,512,301z M386.1,150.1c14.6,0,29.3,0,43.9,0c3.6,0,7.3-0.5,8.1-4.2c0.6-2.7,0-6.4-1.5-8.7 c-10.8-15.8-21.9-31.3-32.9-47c-2.5-3.6-5.6-5.3-10-5.3c-16.8,0.1-33.6,0-50.4,0.1c-7.1,0-9.7,2.5-9.7,9.5 c-0.1,15.3-0.1,30.6,0,45.9c0,7.3,2.4,9.6,9.5,9.6C357.5,150.1,371.8,150.1,386.1,150.1z"></path> <path d="M0,274c2.2-3.2,4.9-5.1,9.1-5.1c32.3,0.1,64.6,0.1,96.9,0.1c0.6,0,1.3,0.1,2,0.2c-4.2,5.7-8.8,10.9-12.1,16.8 c-3.3,6-5.2,12.9-7.9,19.8c-8.4,0-17.3,0-26.3,0c-17,0-34-0.1-50.9,0.1c-4.5,0-8.1-1.2-10.7-4.9C0,292,0,283,0,274z"></path> <path d="M148.4,247.1c-39.8,0-79.6,0-119.4,0c-8.9,0-11-2-11-10.8c0-70.5,0-141,0-211.4C18,8.9,26.7,0,42.6,0 C113.4,0,184.2,0,255,0c15.6,0,24.5,8.8,24.5,24.5c0.1,70.8,0,141.6,0,212.4c0,7.8-2.4,10.1-10.2,10.1 C229,247.1,188.7,247.1,148.4,247.1z"></path> <path d="M103,314.4c0.1-24.9,20.9-45.6,45.6-45.3c24.7,0.3,45,20.5,45.2,45.3c0.2,24.6-20.6,45.5-45.4,45.6 C123.6,360,102.9,339.2,103,314.4z M125.7,314.6c0.1,12.7,10.3,22.6,23,22.4c12.4-0.2,22.3-10.4,22.2-22.8 c-0.1-12.6-10.4-22.6-23.1-22.4C135.4,292,125.6,302.1,125.7,314.6z"></path> <path d="M340.9,314.5c0-25,20.5-45.6,45.4-45.5c24.8,0.1,45.7,21,45.3,45.6c-0.3,24.9-20.5,45-45.2,45.3 C361.6,360.1,340.9,339.5,340.9,314.5z M386.3,291.9c-12.6-0.1-22.6,9.8-22.8,22.3c-0.2,12.6,10,22.9,22.7,22.9 c12.4,0,22.6-10.2,22.7-22.6C408.9,302.1,398.8,291.9,386.3,291.9z"></path> </g> </svg> 