<?xml version="1.0" encoding="UTF-8"?> <svg xmlns="http://www.w3.org/2000/svg" xmlns:xlink="http://www.w3.org/1999/xlink" version="1.1" id="Capa_1" x="0px" y="0px" width="294.3px" height="108.6px" viewBox="0 0 294.3 108.6" style="enable-background:new 0 0 294.3 108.6;" xml:space="preserve"> <style type="text/css"> .st0{fill:#2C2C2B;} .st1{fill:none;} .st2{fill:#00A39A;} </style> <g> <g> <path class="st0" d="M0.3,72.2V1.8H17v9.8C22.8,4.4,31.3,0.4,41.2,0.4c16.2,0,25.6,10.8,25.6,27.6v44.2H50.1v-41 c0-10.1-5-15.8-13.9-15.8c-11.7,0-19.3,10.4-19.3,26.3v30.6L0.3,72.2L0.3,72.2z"></path> <path class="st0" d="M108.6,73.6c-20.9,0-35.3-14.7-35.3-36.7S87.5,0.4,108.4,0.4c15.7,0,27.1,8.4,32,22.2l-15.6,6.4 c-1.9-9-7.5-13.8-16.1-13.8c-11.2,0-18.4,8.5-18.4,21.7s7.2,21.8,18.5,21.8c8.5,0,14.1-4.8,15.9-13.8l15.5,6.4 C135,65.9,123.9,73.6,108.6,73.6L108.6,73.6L108.6,73.6z"></path> <path class="st0" d="M179.6,73.6c-21.1,0-35.2-14.7-35.2-36.6s14.1-36.7,35.2-36.7S215,15.1,215,37.1S200.7,73.6,179.6,73.6z M179.6,58.8c10.7,0,18.2-8.8,18.2-21.7s-7.5-21.8-18.2-21.8s-18.2,8.9-18.2,21.8S169,58.8,179.6,58.8z"></path> <g> <path class="st1" d="M294.3,36.7c0-17.7-12.5-32.4-29.2-35.8c-11.5,1.5-19.9,7.1-24.7,17l13.6,9.8c2-8.1,8-12.4,17.2-12.4 c8.4,0,13.3,3.4,13.3,9.8v1.1l-17.2,2.7C247.5,32,238,39.8,238,52.7c0,11.1,7.4,18.8,18.7,20.6c0.3,0,0.7,0,1,0 C277.9,73.3,294.3,56.9,294.3,36.7L294.3,36.7L294.3,36.7z M254.9,51.9c0-5.4,4.7-8.1,17.6-10.2l12-2v0.9 c0,12.9-9.7,18.9-19.1,18.9C259,59.5,254.9,56.7,254.9,51.9L254.9,51.9L254.9,51.9z"></path> <path class="st2" d="M284.5,40.6v-0.9l-12,2c-12.9,2.1-17.6,4.8-17.6,10.2c0,4.8,4.1,7.6,10.4,7.6 C274.8,59.5,284.5,53.5,284.5,40.6L284.5,40.6L284.5,40.6z"></path> <path class="st2" d="M238,52.6c0-12.9,9.6-20.7,29.3-23.8l17.2-2.7V25c0-6.4-4.9-9.8-13.3-9.8c-9.2,0-15.2,4.3-17.2,12.4 l-13.6-9.8c4.8-9.8,13.1-15.5,24.7-17c-2.4-0.5-4.9-0.8-7.4-0.8c-20.2,0-36.6,16.4-36.6,36.6s15.8,36,35.6,36.6 C245.3,71.4,237.9,63.8,238,52.6L238,52.6L238,52.6z"></path> </g> </g> <g> <path class="st0" d="M0,102.8v-13h3.1v1.8c1.1-1.3,2.6-2.1,4.5-2.1c3,0,4.8,2,4.8,5.1v8.2H9.2v-7.6c0-1.8-0.9-2.9-2.6-2.9 c-2.1,0-3.5,1.9-3.5,4.9v5.6L0,102.8L0,102.8L0,102.8z"></path> <path class="st0" d="M26.3,102.8h-3.1c-0.1-0.4-0.2-0.9-0.2-1.6c-1.1,1.3-2.4,1.9-4.2,1.9c-2.6,0-4.4-1.5-4.4-3.9s1.8-3.8,5.4-4.4 l3.2-0.5v-0.2c0-1.2-0.9-1.8-2.4-1.8c-1.7,0-2.8,0.8-3.2,2.3l-2.5-1.9c1-2.2,3-3.2,5.8-3.2c3.4,0,5.3,1.6,5.3,4.5v6.1 C26,101.2,26.1,102.1,26.3,102.8L26.3,102.8z M19.5,100.5c1.8,0,3.5-1.1,3.5-3.5v-0.1l-2.2,0.4c-2.4,0.4-3.2,0.9-3.2,1.9 C17.6,100,18.3,100.5,19.5,100.5L19.5,100.5z"></path> <path class="st0" d="M33.3,103.1c-2.3,0-3.7-1.5-3.7-4v-6.6h-2v-2.6h2v-1.4l3.2-2.4v3.8h2.4v2.6h-2.4v6.5c0,1,0.3,1.4,1,1.4 c0.5,0,1-0.3,1.3-0.6l0.6,2.6C35.2,102.8,34.3,103.1,33.3,103.1L33.3,103.1L33.3,103.1z"></path> <path class="st0" d="M37.7,88.4v-3h3.1v3H37.7z M37.7,102.8v-13h3.1v13H37.7z"></path> <path class="st0" d="M49.5,103.1c-3.9,0-6.5-2.7-6.5-6.8c0-4,2.6-6.8,6.5-6.8s6.6,2.7,6.6,6.8S53.4,103.1,49.5,103.1z M49.5,100.3 c2,0,3.3-1.6,3.3-4s-1.4-4-3.3-4s-3.3,1.6-3.3,4S47.5,100.3,49.5,100.3z"></path> <path class="st0" d="M58.2,102.8v-13h3.1v1.8c1.1-1.3,2.6-2.1,4.5-2.1c3,0,4.8,2,4.8,5.1v8.2h-3.1v-7.6c0-1.8-0.9-2.9-2.6-2.9 c-2.1,0-3.5,1.9-3.5,4.9v5.6L58.2,102.8L58.2,102.8L58.2,102.8z"></path> <path class="st0" d="M84.5,102.8h-3.1c-0.1-0.4-0.2-0.9-0.2-1.6c-1.1,1.3-2.4,1.9-4.2,1.9c-2.6,0-4.4-1.5-4.4-3.9s1.8-3.8,5.4-4.4 l3.2-0.5v-0.2c0-1.2-0.9-1.8-2.4-1.8c-1.7,0-2.8,0.8-3.2,2.3l-2.5-1.9c1.1-2.2,3-3.2,5.8-3.2c3.4,0,5.3,1.6,5.3,4.5v6.1 C84.2,101.2,84.3,102.1,84.5,102.8L84.5,102.8z M77.7,100.5c1.8,0,3.5-1.1,3.5-3.5v-0.1L79,97.2c-2.4,0.4-3.2,0.9-3.2,1.9 C75.8,100,76.5,100.5,77.7,100.5L77.7,100.5z"></path> <path class="st0" d="M87.2,102.8V86h3.1v16.8H87.2z"></path> <path class="st0" d="M104.2,103.1c-3.8,0-6.6-2.7-6.6-6.8s2.6-6.8,6.5-6.8c2.9,0,5,1.5,5.9,4.1l-2.9,1.2c-0.3-1.7-1.4-2.5-3-2.5 c-2.1,0-3.4,1.6-3.4,4c0,2.4,1.3,4,3.4,4c1.5,0,2.6-0.9,2.9-2.5l2.9,1.2C109.1,101.7,107,103.1,104.2,103.1L104.2,103.1 L104.2,103.1z"></path> <path class="st0" d="M118.1,103.1c-3.9,0-6.5-2.7-6.5-6.8c0-4,2.6-6.8,6.5-6.8s6.6,2.7,6.6,6.8S122,103.1,118.1,103.1z M118.1,100.3c2,0,3.3-1.6,3.3-4s-1.4-4-3.3-4s-3.3,1.6-3.3,4S116.1,100.3,118.1,100.3z"></path> <path class="st0" d="M135.9,102.8v-1.9c-1.1,1.4-2.6,2.2-4.5,2.2c-2.9,0-4.8-2.1-4.8-4.7v-8.6h3.1v7.6c0,1.8,0.9,2.8,2.5,2.8 c2.3,0,3.5-2,3.5-4.8v-5.7h3.1v13L135.9,102.8L135.9,102.8L135.9,102.8z"></path> <path class="st0" d="M141.9,102.8v-13h3.1v1.8c1.1-1.3,2.6-2.1,4.5-2.1c3,0,4.8,2,4.8,5.1v8.2h-3.1v-7.6c0-1.8-0.9-2.9-2.6-2.9 c-2.1,0-3.5,1.9-3.5,4.9v5.6L141.9,102.8L141.9,102.8L141.9,102.8z"></path> <path class="st0" d="M162.8,103.1c-3.9,0-6.6-2.7-6.6-6.8s2.6-6.8,6.5-6.8c2.9,0,5,1.5,5.9,4.1l-2.9,1.2c-0.3-1.7-1.4-2.5-3-2.5 c-2.1,0-3.4,1.6-3.4,4c0,2.4,1.3,4,3.4,4c1.5,0,2.6-0.9,2.9-2.5l2.9,1.2C167.7,101.7,165.7,103.1,162.8,103.1L162.8,103.1 L162.8,103.1z"></path> <path class="st0" d="M170.9,88.4v-3h3.1v3H170.9z M170.9,102.8v-13h3.1v13H170.9z"></path> <path class="st0" d="M176.9,102.8V86h3.1v16.8H176.9z"></path> <path class="st0" d="M193.8,103.1c-3.9,0-6.5-2.7-6.5-6.8c0-4,2.6-6.8,6.5-6.8s6.6,2.7,6.6,6.8S197.7,103.1,193.8,103.1z M193.8,100.3c2,0,3.3-1.6,3.3-4s-1.4-4-3.3-4s-3.3,1.6-3.3,4S191.9,100.3,193.8,100.3z"></path> <path class="st0" d="M202.6,102.8v-13h3.1v1.8c1.1-1.3,2.6-2.1,4.5-2.1c3,0,4.8,2,4.8,5.1v8.2h-3.1v-7.6c0-1.8-0.9-2.9-2.6-2.9 c-2.1,0-3.5,1.9-3.5,4.9v5.6L202.6,102.8L202.6,102.8L202.6,102.8z"></path> <path class="st0" d="M234,102.8h-3.1c-0.1-0.4-0.2-0.9-0.2-1.6c-1.1,1.3-2.4,1.9-4.2,1.9c-2.6,0-4.4-1.5-4.4-3.9s1.8-3.8,5.4-4.4 l3.2-0.5v-0.2c0-1.2-0.9-1.8-2.4-1.8c-1.7,0-2.8,0.8-3.2,2.3l-2.5-1.9c1.1-2.2,3-3.2,5.8-3.2c3.4,0,5.4,1.6,5.4,4.5v6.1 C233.7,101.2,233.8,102.1,234,102.8L234,102.8z M227.1,100.5c1.8,0,3.5-1.1,3.5-3.5v-0.1l-2.2,0.4c-2.4,0.4-3.2,0.9-3.2,1.9 C225.2,100,226,100.5,227.1,100.5L227.1,100.5z"></path> <path class="st0" d="M242.3,108.6c-3,0-5.2-1.2-6.3-3.7l2.6-1.8c0.3,1.7,1.7,2.8,3.6,2.8c2.3,0,3.7-1.6,3.7-3.9v-1.1 c-0.9,1.2-2.4,1.9-4,1.9c-3.4,0-5.8-2.7-5.8-6.6c0-4.3,2.9-6.6,5.9-6.6c1.5,0,3,0.6,4,1.8v-1.5h3.2v11.6 C249.1,106.1,246.6,108.6,242.3,108.6L242.3,108.6z M242.6,100c2,0,3.3-1.6,3.3-3.9c0-2.3-1.4-3.8-3.4-3.8s-3.3,1.5-3.3,3.8 S240.6,100,242.6,100L242.6,100z"></path> <path class="st0" d="M251.8,88.4v-3h3.1v3H251.8z M251.8,102.8v-13h3.1v13H251.8z"></path> <path class="st0" d="M257.7,102.8v-13h3.1v1.8c1.1-1.3,2.6-2.1,4.5-2.1c3,0,4.8,2,4.8,5.1v8.2H267v-7.6c0-1.8-0.9-2.9-2.6-2.9 c-2.1,0-3.5,1.9-3.5,4.9v5.6L257.7,102.8L257.7,102.8L257.7,102.8z"></path> <path class="st0" d="M278.4,108.6c-3,0-5.2-1.2-6.3-3.7l2.6-1.8c0.3,1.7,1.7,2.8,3.6,2.8c2.3,0,3.7-1.6,3.7-3.9v-1.1 c-0.9,1.2-2.4,1.9-4,1.9c-3.4,0-5.8-2.7-5.8-6.6c0-4.3,2.9-6.6,5.9-6.6c1.5,0,3,0.6,4,1.8v-1.5h3.2v11.6 C285.2,106.1,282.7,108.6,278.4,108.6L278.4,108.6z M278.7,100c2,0,3.3-1.6,3.3-3.9c0-2.3-1.4-3.8-3.4-3.8s-3.3,1.5-3.3,3.8 S276.7,100,278.7,100L278.7,100z"></path> </g> </g> </svg> 