<?xml version="1.0" encoding="UTF-8"?> <!-- Generator: Adobe Illustrator 25.2.1, SVG Export Plug-In . SVG Version: 6.00 Build 0) --> <svg xmlns="http://www.w3.org/2000/svg" xmlns:xlink="http://www.w3.org/1999/xlink" version="1.1" id="Layer_1" x="0px" y="0px" width="143.1px" height="51.4px" viewBox="0 0 143.1 51.4" style="enable-background:new 0 0 143.1 51.4;" xml:space="preserve"> <style type="text/css"> .st0{fill:#009BFF;} .st1{fill:#404040;} </style> <circle class="st0" cx="25.7" cy="25.7" r="25.7"></circle> <path class="st1" d="M66.1,19.7c0.8,0,1.6-0.3,2.2-0.8c0.5-0.7,0.8-1.5,0.7-2.4V6.3h4.6v10.2c0.1,2-0.6,3.9-2,5.2 c-1.5,1.3-3.5,1.9-5.5,1.8c-2,0.1-4-0.5-5.5-1.8c-1.4-1.4-2.2-3.3-2.1-5.2V6.3h4.6v10.2c-0.1,0.9,0.2,1.7,0.8,2.3 C64.4,19.5,65.3,19.8,66.1,19.7z M82.9,23.6c-1.3,0-2.7-0.2-3.9-0.7c-1.2-0.4-2.4-1.1-3.3-2l2.2-2.8c0.7,0.6,1.4,1.1,2.2,1.4 c0.9,0.4,1.8,0.5,2.8,0.5c0.5,0,1.1-0.1,1.6-0.3c0.4-0.2,0.6-0.6,0.6-1c0-0.5-0.3-0.9-0.7-1.1c-0.8-0.4-1.6-0.7-2.4-1l-1-0.3 c-1.3-0.3-2.5-0.9-3.5-1.8c-0.8-0.8-1.2-2-1.2-3.1c0-1,0.3-1.9,0.9-2.8c0.6-0.8,1.4-1.5,2.3-1.8C80.5,6.2,81.7,6,82.9,6 c1.3,0,2.5,0.2,3.7,0.7c1.1,0.4,2.2,1.1,3.1,1.9l-2.3,2.9c-0.6-0.5-1.4-1-2.1-1.3c-0.7-0.4-1.6-0.6-2.4-0.6c-0.5,0-1.1,0.1-1.5,0.3 c-0.4,0.2-0.6,0.6-0.6,1c0,0.4,0.2,0.8,0.6,1c0.6,0.4,1.3,0.7,2,0.8l1.3,0.3c1.5,0.3,2.8,1,3.9,2.1c0.7,0.8,1.2,1.9,1.1,3 c0,1-0.3,2-0.8,2.8c-0.6,0.8-1.4,1.5-2.4,1.8C85.3,23.4,84.1,23.6,82.9,23.6z M103.6,23.3l-1.1-3.1h-6.4l-1.1,3.2h-4.6l6.2-17h5.4 l6.1,16.9H103.6z M97.3,16.7h4l-1.9-5.9L97.3,16.7z M63.5,45V31.8h-5v-3.7h14.7v3.7h-5V45L63.5,45z M82.9,45.4 c-1.6,0-3.1-0.4-4.5-1.1c-1.3-0.7-2.4-1.8-3.1-3.1c-0.8-1.4-1.2-3-1.2-4.6c0-1.2,0.2-2.4,0.6-3.5c0.4-1,1-2,1.8-2.8 c0.8-0.8,1.7-1.4,2.8-1.8c2.3-0.9,4.8-0.9,7,0c1,0.4,2,1,2.8,1.8C90,31,90.6,32,91,33c0.5,1.1,0.7,2.3,0.8,3.5 c0,1.6-0.4,3.2-1.1,4.6c-0.7,1.3-1.8,2.4-3.1,3.1C86.1,45,84.5,45.4,82.9,45.4z M82.9,41.5c0.8,0,1.5-0.2,2.1-0.6 c0.6-0.4,1.1-1,1.4-1.7c0.4-0.8,0.5-1.7,0.5-2.6c0-0.9-0.2-1.8-0.5-2.6c-0.3-0.7-0.8-1.4-1.4-1.8c-1.3-0.9-3-0.9-4.3,0 c-0.6,0.5-1.1,1.1-1.4,1.8c-0.4,0.8-0.5,1.7-0.5,2.6c0,0.9,0.2,1.8,0.5,2.6c0.3,0.7,0.8,1.3,1.4,1.7C81.4,41.3,82.1,41.5,82.9,41.5 L82.9,41.5z M94.4,45V28h6.7c1.6,0,3.1,0.3,4.5,1.1c1.3,0.7,2.3,1.7,3,3c1.5,2.8,1.5,6.1,0,8.8c-0.7,1.3-1.8,2.3-3,3 c-1.4,0.7-2.9,1.1-4.5,1.1L94.4,45z M98.9,41.4h2.1c1.1,0,2.2-0.4,2.9-1.3c0.7-1,1.1-2.2,1.1-3.5c0.1-1.2-0.3-2.5-1.1-3.5 c-0.7-0.9-1.8-1.4-2.9-1.3h-2.1V41.4z M123.4,45l-1.1-3.2h-6.4l-1.1,3.2h-4.6l6.2-17h5.4l6.2,17H123.4z M117.1,38.4h4.1l-2-5.9 L117.1,38.4z M137.1,38.9V45h-4.7v-6.1l-6-10.9h5.2l3.1,6.8l3.1-6.7h5.2L137.1,38.9z"></path> </svg> 